<?xml version="1.0"?>
<svg xmlns="http://www.w3.org/2000/svg" xmlns:xlink="http://www.w3.org/1999/xlink" version="1.1" viewBox="0 0 192 192" width="96px" height="96px"><g fill="none" fill-rule="none" stroke="none" stroke-width="1" stroke-linecap="butt" stroke-linejoin="miter" stroke-miterlimit="10" stroke-dasharray="" stroke-dashoffset="0" font-family="none" font-weight="none" font-size="none" text-anchor="none" style="mix-blend-mode: normal"><path d="M0,192v-192h192v192z" fill="none" fill-rule="nonzero"/><g fill-rule="evenodd"><g id="surface1"><path d="M91.60938,13.14062c2.71875,-1.51562 6.0625,-1.51562 8.78125,0c13.40625,7.53125 53.79688,30.20313 67.21875,37.73438c2.71875,1.53125 4.39062,4.34375 4.39062,7.39062c0,15.0625 0,60.40625 0,75.46875c0,3.04688 -1.67188,5.85938 -4.39062,7.39062c-13.42188,7.53125 -53.79688,30.20312 -67.21875,37.73438c-2.71875,1.51562 -6.0625,1.51562 -8.78125,0c-13.42188,-7.53125 -53.79688,-30.20312 -67.21875,-37.73438c-2.71875,-1.53125 -4.39062,-4.34375 -4.39062,-7.39062c0,-15.0625 0,-60.40625 0,-75.46875c0,-3.04687 1.67188,-5.85937 4.39062,-7.39062c13.40625,-7.53125 53.8125,-30.20312 67.21875,-37.73438z" fill="#0000a1"/><path d="M21.21875,137.60938c-1.0625,-1.42188 -1.21875,-2.76562 -1.21875,-4.59375c0,-14.96875 0,-60.04687 0,-75.03125c0,-3.03125 1.67188,-5.82812 4.375,-7.34375c13.375,-7.48437 53.625,-30.03125 67,-37.51562c2.70312,-1.51562 6.375,-1.48438 9.07812,0.03125c13.375,7.48437 53.48438,29.82812 66.85938,37.3125c1.07812,0.60937 1.90625,1.34375 2.64062,2.3125z" fill="#8b5aff"/><path d="M96,40c30.90625,0 56,25.09375 56,56c0,30.90625 -25.09375,56 -56,56c-30.90625,0 -56,-25.09375 -56,-56c0,-30.90625 25.09375,-56 56,-56zM96,68c15.45312,0 28,12.54688 28,28c0,15.45312 -12.54688,28 -28,28c-15.45312,0 -28,-12.54688 -28,-28c0,-15.45312 12.54688,-28 28,-28z" fill="#ffffff"/><path d="M169.9375,52.8125c2.0625,1.9375 2.03125,4.84375 2.03125,7.14062c0,15.1875 -0.125,58.35938 0.03125,73.53125c0.01562,1.59375 -0.51562,3.26562 -1.29688,4.51562l-76.32812,-42z" fill="#512bd4"/><path d="M136,80h4v32h-4z" fill="#ffffff"/><path d="M148,80h4v32h-4z" fill="#ffffff"/><path d="M128,100h32v4h-32z" fill="#ffffff"/><path d="M128,88h32v4h-32z" fill="#ffffff"/></g></g></g></svg>
